<svg xmlns="http://www.w3.org/2000/svg" width="29" height="39" viewBox="0 0 29 39"><style>.c{fill:#9a6247}.f{fill:#584664}.g{fill:#9e303b}.h{fill:#d26471}.i{fill:#f5eeba}</style><path d="M0 39v-1h1v-2h1v-1h25v2h1v1h1v1zM4 18v-5h1v-1h1v-1h1v-1h2V7H8V6H7V4h1V3h3V2h1V1h2V0h1v1h1v1h-1v3h-1v1h2v1h2v1h1v1h1v1h2v1h1v1h1v2h-1v2h1v1h1v1l-5 5H9z"/><path d="M2 38v-2h24v1h1v1z" style="fill:#684c41"/><path d="M2 38v-2h1v1h8v1z" style="fill:#c78c6c"/><path d="M17 36v1h1v-1zM27 37h-3v-1h-1v2h4zM14 36v2h1v-2z" class="c"/><path fill-rule="evenodd" d="M13 33h-1v1h-1v1H8v-1h2v-1h1v-1h2zm5 0h1v1h2v1h-3v-1h-1v-1h-1v-1h2zM1 18v1h1v2h1v3h1v1h1v2h1v1H5v1h2v1h1v1h2v1h9v-1h2v-1h1v-1h2v-1h-1v-1h1v-2h1v-1h1v-3h1v-2h1v-1h-4v1h-1v1h-1v1h-2v1h-2v-1h-2v-1h-1v-1h-1v1h-1v1h-2v1H9v-1H7v-1H6v-1H5v-1z"/><path d="M3 19v2h1v3h1v1h1v2h1v2h1v1h2v1h9v-1h2v-1h1v-2h1v-2h1v-1h1v-3h1v-2h-2v1h-1v1h-1v1h-2v1h-2v-1h-2v-1h-1v-1h-1v1h-1v1h-2v1H9v-1H7v-1H6v-1H5v-1z" style="fill:#8c8fae"/><path d="M15 31h5v-1h1v-1h2v-1h-5v1h-3zm7-4v-2h2v-3h-1v-1h2v3h-2v3z" style="fill:#acb7cb"/><path d="M16 23v1l3 2h1v1h1v-4zm-3 8h-3v-2H7v-2H6v-2H5v-1h1v1h1v2h1v1h3v2h2zm-1-7v-1H9v4h1zM4 19v1h2v1H5v-2zM8 21v1h1v-1zM11 21h4v-2h-1v3h-3z" class="f"/><path d="M7 27h15v1H7zm1 2h13v1H8zM13 27v-3h-3v3zm3 0v-3h4v1h-1v2"/><path d="M11 27v-2h1v2zm6 0v-2h1v2zM14 20H7v-1H5v-6h2v-2h2v-1h1V7h4l6 4h2v1h1v2h-1v2h1v1h1v2h-1v1h-8v-1h-1z" class="g"/><path d="M14 20H6v-3h1v-1H6v-2h1v-2h2v-1h2V7H9V6H8V4h3V3h1V2h2V1h1v1h-1v3h-1v1h1v1h2v1h2v1h1v1h1v1h1v1h1v2h-1v3h1v1h1v2h-8v-1h-1z" class="h"/><path d="M11 22H9v-1H7v-1H6v-1h2v-1h1v-2h2v-1h-1v-1H9v-2h1v-1h1v3h2v-1h-1v-3h1V8h-1V7h3v1h2v3h1v2h1v1h2v2h-1v2h1v1h2v1h-1v1h-2v1h-2v-1h-2v-1h-1v-1h-1v1h-1v1h-2z" class="i"/><path d="M4 7v1h1V7z" class="h"/><path d="M22 7V6h-1v-.9L20 5v2z" class="g"/><path d="M17 1v1h1V1z" class="i"/></svg>