<svg version="1.2" xmlns="http://www.w3.org/2000/svg" viewBox="0 0 30 50" width="30" height="50"><style>.a{fill:#494949}.b{fill:#8c8fae}.c{fill:#584664}.d{fill:#9e303b}.e{fill:#584563}.f{fill:#acb7cb}.g{fill:#684c41}.h{fill:#9a6247}.i{fill:#c78c6c}</style><path class="a" d="m14 19h1v-2h-1v-1h1 1v-1-2h-1v-1h-1v-2h-1v3h1v1h1v1h-2v3h1z"/><path class="a" d="m8 19h-1v-2h1v-1h-1v-1-1-2h1v-1h1v2h-1v2h1v1h1v1h-1v1h-1z"/><path class="a" d="m9 9v1h1v-1z"/><path class="a" d="m14 6v2h1v-2z"/><path class="a" d=""/><path  d="m13 30v1h-5v-1h-1v-1h-1v-1h-2v-1h1v-1h-1v-2h-1v-1h-1v-3h-1v-2h-1v-1h3v1h1v1h1v1h4v-1h1v-1h1v1h1v1h3 1v-1h1v-1h1v-1h3v1h-1v2h-1v3h-1v1h-1v2h-1v1h1v1h-2v1h-1v1z"/><path class="b" d="m13 30h-3-1-1v-1h-1v-1h-1v-2h-1v-2h-1v-1h-1v-3h-1v-2h1v1h1v1h1v1h4v-1h1v-1h1v1h1v1h4v-1h1v-1h1v-1h1v2h-1v3h-1v1h-1v4h-2v1h-1z"/><path class="c" d="m9 30h-1v-3h-3v-5h4v1h-3v1h1v1h-1v3h3z"/><path class="c" d="m11 23v-1h4v4h-1z"/><path fill-rule="evenodd" d="m6 28v1h9v-1zm-1-2v1h11v-1z"/><path fill-rule="evenodd" d="m10 23v3h-3v-2h-1v-1zm1 3v-3h3v3z"/><path class="d" d="m8 24v2h1v-2zm4 2h1v-2h-1z"/><path class="e" d="m3 19v1h6l1-1v-1h1v2h-1-1v1h-2v-1h-3v-1z"/><path fill-rule="evenodd" class="f" d="m13 29h-2v1h2zm3-2h-3v1h3zm1-3v-1h-1v1zm1-1v-2h-2v1h1v1z"/><path class="g" d="m9 31v13l1 3h1l1-3v-13z"/><path class="h" d="m11 31v2h-1v2h1v2h-1v-1h2v7h-1v-3h-2v1h1v-2h3v-8z"/><path  d="m11 48h-1v-4h-2v-13h1v16h3v-16h1v13h-2z"/><path class="i" d="m11 41v1h1v-7h-1v3h1v3z"/><path  d="m23 36v-2h-1v-1h-1v-1h-1v1h-1v1h-6v3h6v1h3v-1h1"/><path  d="m30 50h-1v-1h-1v-1h-1v-6h-1v-1h1v-14h1v-1h-1v-2h1v-1h2z"/><path class="g" d="m29 48h-1v-24h1z"/><path class="i" d="m28 42v6h1v-6z"/><path fill-rule="evenodd" class="h" d="m28 45v1h1v-1zm0-12v1h1v-1zm0-8v1h1v-1z"/><path  d="m27 40h-1v-1h-1v-1h-1v-1h-1v-4h1v-1h1v-1h1v-1h1z"/><path fill-rule="evenodd" class="b" d="m27 38v-6h-1v1h-1v4h1v1zm-6-3v-2h-1v2h-7v1h7v1h1v-1h3v-1z"/><path fill-rule="evenodd" class="e" d="m27 34v4h-1v-4zm-3 1v1h-1v-1zm-3 1v1h-1v-1z"/><path class="f" d="m22 35v1h1v-1z"/><path  d="m26 33v1h1v-1z"/><path  d="m14 34h-6v1h-1v2h1v1h6z"/><path class="b" d="m13 35h-5v2h5z"/><path class="f" d="m11 35h2v1h-2z"/><path class="c" d="m8 36h5v1h-5z"/></svg>