<svg version="1.2" xmlns="http://www.w3.org/2000/svg" viewBox="0 0 26 28" width="26" height="28"><style>.a{fill:#f89f4f}.b{fill:#b57359}.c{fill:#915b4f}.d{fill:#41363e}</style><path  d="m0 0v16h2v2h2v2h2v2h2v2h2v2h2v2h2v-2h2v-2h2v-2h2v-2h2v-2h2v-2h2v-16h-10v6h-2v2h-2v-2h-2v-6z"/><path class="a" d="m8 2h-6v10l4 4v2h2l4 4h2l2-2h2v-2l2-2h2v-2h2v-12h-6v6h-2v2h-2v2h-2v-2h-2v-2h-2z"/><path class="b" d="m8 16v4h4v4h2v-6h2v4h-6v-6zm-4-4v4h2v-2h-4v-2zm14 4v2h2v-2z"/><path class="c" d="m14 14h2v-4h4v-2h4v-4h-2v2h-2v-2h-2v8h-4zm-12-10v6h8v2h-4v-8z"/><path class="d" d="m22 6h-2v4h-2v2h-2v2h-2v2h-2v-2h-2v-2h-2v-2h-2v-4h-2v6h2v2h2v2h2v2h2v2h2v-2h2v-2h2v-2h2v-2h2z"/></svg>