<svg xmlns="http://www.w3.org/2000/svg" width="26" height="28" viewBox="0 0 26 28"><path d="M0 0v16h2v2h2v2h2v2h2v2h2v2h2v2h2v-2h2v-2h2v-2h2v-2h2v-2h2v-2h2V0H16v6h-2v2h-2V6h-2V0z"/><path d="M8 2H2v10l4 4v2h2l4 4h2l2-2h2v-2l2-2h2v-2h2V2h-6v6h-2v2h-2v2h-2v-2h-2V8H8z" style="fill:#f89f4f"/><path d="M8 16v4h4v4h2v-6h2v4h-6v-6zm-4-4v4h2v-2H2v-2zm14 4v2h2v-2z" style="fill:#b57359"/><path d="M14 14h2v-4h4V8h4V4h-2v2h-2V4h-2v8h-4zM2 4v6h8v2H6V4z" style="fill:#915b4f"/><path d="M22 6h-2v4h-2v2h-2v2h-2v2h-2v-2h-2v-2H8v-2H6V6H4v6h2v2h2v2h2v2h2v2h2v-2h2v-2h2v-2h2v-2h2z" style="fill:#41363e"/></svg>