<svg xmlns="http://www.w3.org/2000/svg" width="12" height="56" viewBox="0 0 12 56"><style>.a{fill:#8c8fae}.b{fill:#584563}.c{fill:#acb7cb}</style><path d="M7 0v4H5v5h2v6H5v3h2v6H5v4h2v6H5v3h2v5H5v6h2v4H5l-3-3V3l3-3zM7 52l4-4V4L7 0z" class="a"/><path d="M9 14v6h1v-6zM9 34v4h1v-4zM2 23v6h2v-2H3v-4zM6 13v2H5v-2zM5 37v4h1v1h1v-3H6v-2zM3 42v7h2v-7zM7 29H6v1l-1 1v2h2zM4 2v1H2v8h1V2zM4 21v1h3v2H5v-3z" class="b"/><path d="M7 51v-1h2V39h1v10H8v2zM7 33h1v-2h2V21H8v-1h1v12H7zM7 1v1h2v11h1V3H8V1z" class="c"/><path d="M1 40v9h3v-7h1v7h2V39H4v-3h4v2h3v11H9v1h1V39H9v-2H5v3h3v8H3v2H2V40z"/><path d="M7 27H4v2H1v11h2v2h4v1H4v-2H2V30h1v-2h4zm0 3H5v6h3v-2H7v3H4v-6h3zm3 1v7h1v-7z"/><path d="M5 34h3v-2h3V20H8v-2H5v1h4v2h1v10H9v2H5zm0-13h2v9h1v-8H5zm-4 1v7h1v-7zm3 3v2h1v-2z"/><path d="M7 9H4v2H1v11h2v2h4v1H4v-2H2V12h1v-2h4zm0 3H5v6h3v-2H7v3H5v2H4v-8h3zm3 1v7h1v-7z"/><path d="M2 11H1V3h2V1h6v2h2v10H9v2H5v1h3v-2h2V2H8V0H4v2H2zm6 1H7V3H5v6H4V4h4z"/><path d="m5 47-2 2-2 4v2h10v-4H5v-2h1v-1h1v-1z" class="a"/><path d="M7 47H6v2H4v2h2v1H5v-4h2z" class="b"/><path d="M7 46H5v2H3v3H1v4h10v-4H5v-2h1v3h2v-2h2v3h2v3H0v-3h2v-4h2v-2h3z"/><path d="M1 54h9v-1h1v2H1z" class="b"/><path d="M6 47v1H4v3H2v2H1v1h2v-5h2v-2z" class="c"/></svg>